<?xml version="1.0" standalone="no"?><!DOCTYPE svg PUBLIC "-//W3C//DTD SVG 20010904//EN"
 "http://www.w3.org/TR/2001/REC-SVG-20010904/DTD/svg10.dtd"><svg version="1.0" xmlns="http://www.w3.org/2000/svg"
 width="604.000000pt" height="696.000000pt" viewBox="0 0 604.000000 696.000000"
 preserveAspectRatio="xMidYMid meet"><g transform="translate(0.000000,696.000000) scale(0.100000,-0.100000)"
fill="#ff0093" stroke="#ff0093"><path d="M599 6920 c-77 -12 -209 -62 -266 -101 -152 -105 -239 -259 -260
-459 -10 -93 -9 -5323 1 -5452 13 -165 81 -306 199 -413 228 -207 601 -192
818 33 69 72 151 216 165 290 3 17 9 32 13 32 4 0 41 -32 82 -71 185 -176 325
-280 564 -417 39 -22 138 -70 240 -116 75 -34 183 -74 261 -96 59 -18 98 -27
219 -56 11 -3 31 -7 45 -10 14 -3 33 -7 43 -10 9 -3 70 -14 135 -24 217 -34
671 -24 887 20 28 6 59 12 70 14 242 48 552 165 780 295 39 22 86 49 105 60
28 15 149 101 195 138 263 211 449 415 628 688 197 302 331 652 399 1042 30
178 32 201 32 428 -1 248 -15 385 -63 612 -85 398 -295 827 -560 1144 -406
486 -905 779 -1585 931 l-191 43 -305 0 -305 0 -160 -33 c-267 -55 -404 -96
-600 -176 -287 -119 -612 -328 -832 -537 -35 -32 -67 -59 -72 -59 -5 0 -10
342 -10 859 -2 818 -5 928 -32 1009 -38 114 -173 273 -277 326 -111 56 -255
82 -363 66z m4269 -2714 c92 -46 198 -148 236 -227 40 -83 59 -201 60 -369 0
-138 -1 -148 -29 -215 -23 -56 -45 -86 -118 -160 -131 -133 -154 -195 -97
-273 36 -50 85 -83 164 -113 150 -55 216 -185 252 -496 18 -158 11 -212 -41
-312 -65 -123 -169 -212 -290 -246 -59 -17 -368 -64 -655 -100 -113 -14 -245
-32 -295 -40 -49 -8 -200 -28 -335 -45 -135 -17 -252 -33 -260 -35 -9 -3 -175
-25 -370 -50 -488 -62 -860 -112 -955 -129 -464 -84 -570 -84 -705 -4 -68 41
-140 129 -190 233 -35 73 -40 93 -55 234 -12 118 -14 168 -6 220 22 135 31
150 176 295 103 103 124 145 105 215 -15 55 -52 88 -159 138 -106 50 -174 111
-210 188 -47 101 -88 334 -78 452 13 168 183 370 352 418 27 8 181 30 340 50
371 45 759 98 902 124 62 11 211 34 330 51 120 17 227 33 238 35 11 3 128 18
260 35 132 16 296 39 365 50 69 11 204 31 300 45 96 14 198 30 225 36 119 25
258 38 360 35 104 -3 114 -5 183 -40z"/><path d="M4565 3833 c-16 -2 -70 -11 -120 -19 -138 -23 -596 -90 -925 -134
-355 -47 -743 -103 -900 -130 -63 -10 -207 -31 -320 -45 -113 -14 -243 -32
-290 -40 -47 -8 -177 -26 -290 -40 -122 -16 -214 -33 -228 -42 -40 -25 -55
-78 -48 -167 10 -119 22 -139 107 -181 95 -47 148 -91 197 -165 170 -254 116
-612 -115 -771 -23 -16 -45 -38 -48 -50 -4 -11 -1 -68 6 -126 15 -124 34 -156
102 -174 47 -12 32 -14 371 41 136 22 339 51 450 65 110 14 210 28 221 31 11
2 160 22 330 44 171 21 418 53 550 70 132 16 323 41 425 55 102 14 290 39 419
55 341 44 366 53 429 145 32 47 33 51 26 119 -9 103 -25 129 -99 171 -71 39
-181 151 -226 230 -89 153 -101 369 -30 521 18 39 57 91 108 145 58 61 82 95
87 120 5 30 -14 178 -30 232 -12 37 -69 52 -159 40z"/></g></svg>