<?xml version="1.0" standalone="no"?>
<!DOCTYPE svg PUBLIC "-//W3C//DTD SVG 20010904//EN"
 "http://www.w3.org/TR/2001/REC-SVG-20010904/DTD/svg10.dtd">
<svg version="1.0" xmlns="http://www.w3.org/2000/svg"
 width="728.000000pt" height="767.000000pt" viewBox="0 0 728.000000 767.000000"
 preserveAspectRatio="xMidYMid meet">

<g transform="translate(0.000000,767.000000) scale(0.100000,-0.100000)"
fill="#000000" stroke="none">
<path d="M635 6918 c-211 -27 -389 -149 -476 -328 -69 -141 -64 90 -64 -2945
0 -2254 2 -2772 13 -2825 41 -201 203 -379 402 -441 79 -24 230 -29 310 -10
205 49 375 214 445 428 9 29 21 53 27 53 6 0 48 -36 94 -79 301 -286 660 -495
1047 -611 134 -40 387 -96 507 -111 123 -16 472 -16 620 0 611 67 1171 327
1581 734 438 433 689 913 801 1527 20 113 23 155 22 430 0 313 -3 349 -50 580
-79 381 -305 862 -534 1134 -152 181 -322 350 -440 438 -355 264 -718 429
-1155 523 -244 52 -297 57 -562 53 -215 -4 -255 -8 -408 -37 -354 -66 -663
-178 -930 -336 -177 -105 -379 -254 -511 -377 -34 -32 -67 -58 -73 -58 -8 0
-11 227 -11 848 0 1007 2 984 -101 1148 -44 69 -124 147 -191 187 -101 59
-248 89 -363 75z m4251 -2708 c86 -41 207 -160 247 -240 49 -100 74 -401 43
-518 -23 -85 -52 -132 -141 -222 -84 -86 -100 -109 -115 -161 -22 -76 44 -158
168 -209 125 -52 195 -136 235 -285 25 -93 50 -321 43 -388 -9 -88 -64 -194
-139 -271 -82 -83 -158 -119 -297 -141 -58 -9 -125 -20 -150 -26 -25 -5 -137
-20 -250 -34 -113 -14 -266 -34 -340 -45 -219 -32 -712 -98 -1040 -140 -471
-60 -823 -108 -955 -130 -497 -82 -506 -83 -575 -70 -151 29 -230 82 -316 211
-66 100 -82 150 -100 317 -18 164 -11 266 25 347 12 27 63 90 130 158 61 63
113 126 117 141 3 15 4 48 1 72 -7 63 -41 95 -164 155 -80 39 -112 61 -148
102 -76 87 -118 230 -131 445 -6 89 -4 118 11 163 58 179 226 331 395 358 36
6 139 19 230 31 91 11 233 29 315 40 83 12 184 25 225 30 41 5 149 21 240 35
91 15 192 30 225 35 33 5 119 19 190 30 72 12 261 39 420 60 463 63 665 92
1105 161 144 22 212 28 306 26 115 -3 125 -5 190 -37z"/>
<path d="M4545 3826 c-220 -35 -864 -128 -1040 -151 -234 -31 -718 -101 -790
-115 -27 -5 -185 -28 -350 -50 -646 -88 -806 -110 -830 -116 -51 -13 -65 -47
-65 -156 0 -140 10 -159 105 -203 217 -99 336 -364 280 -627 -7 -37 -22 -87
-33 -110 -26 -59 -90 -141 -137 -177 -82 -62 -78 -53 -71 -160 9 -126 23 -169
59 -191 52 -32 89 -32 259 -1 90 16 233 39 318 51 85 11 232 32 325 46 94 13
238 33 320 43 135 17 1178 151 1565 202 183 23 322 46 353 58 31 12 105 94
113 126 3 14 4 57 2 95 -4 83 -22 111 -98 156 -67 39 -159 129 -210 207 -97
145 -117 380 -46 542 15 33 53 84 99 132 41 43 79 88 86 100 24 46 -1 250 -36
284 -26 26 -78 31 -178 15z"/>
<path d="M5158 6635 c-2 -2 -35 -5 -74 -9 -327 -27 -563 -372 -478 -700 14
-55 57 -155 77 -181 4 -5 24 -31 44 -58 46 -60 144 -130 230 -165 62 -24 80
-26 198 -26 146 0 205 15 299 78 53 35 146 122 146 137 0 4 6 14 13 21 18 20
53 95 76 167 28 87 28 209 0 305 -22 73 -56 157 -68 166 -4 3 -17 21 -28 40
-52 84 -167 169 -273 200 -57 16 -155 31 -162 25z"/>
<path d="M6605 4669 c-216 -51 -376 -196 -446 -404 -22 -63 -18 -257 5 -325
58 -166 197 -303 366 -360 74 -25 219 -30 304 -10 145 33 293 153 359 291 21
42 41 100 47 129 13 69 13 186 -1 252 -27 129 -128 275 -242 352 -112 74 -268
104 -392 75z"/>
</g>
</svg>
